<svg width="73" height="23" viewBox="0 0 73 23" fill="none" xmlns="http://www.w3.org/2000/svg">
<g clip-path="url(#clip0)">
<path fill-rule="evenodd" clip-rule="evenodd" d="M45.2523 17.4278C41.099 20.4512 35.058 22.0621 29.8475 22.0621C22.5479 22.0621 16.0034 19.4104 11.0195 14.9991C10.6419 14.6521 10.9691 14.1813 11.4474 14.4539C16.8088 17.5269 23.4289 19.3608 30.2754 19.3608C34.8818 19.3608 39.9663 18.4191 44.6482 16.4612C45.353 16.1886 45.9319 16.9321 45.2523 17.4278Z" fill="#FF9900"/>
<path fill-rule="evenodd" clip-rule="evenodd" d="M46.9894 15.4699C46.4608 14.8008 43.4654 15.1478 42.1313 15.3212C41.7286 15.3708 41.6531 15.0238 42.0306 14.776C44.4219 13.1156 48.3234 13.6113 48.7765 14.1565C49.2296 14.7017 48.6507 18.5677 46.4104 20.4016C46.058 20.6742 45.7308 20.5255 45.8818 20.1538C46.3853 18.9147 47.518 16.1638 46.9894 15.4699Z" fill="#FF9900"/>
<path fill-rule="evenodd" clip-rule="evenodd" d="M42.2069 3.12828V1.51743C42.2069 1.2696 42.3831 1.12091 42.6097 1.12091H49.9093C50.1358 1.12091 50.3372 1.29438 50.3372 1.51743V2.88046C50.3372 3.1035 50.1358 3.40089 49.7835 3.89654L46.0078 9.19998C47.4174 9.17519 48.9025 9.37345 50.161 10.0674C50.4379 10.2161 50.5134 10.4639 50.5386 10.6869V12.3969C50.5386 12.6447 50.2869 12.9173 50.01 12.7686C47.7698 11.6039 44.7744 11.48 42.3076 12.7934C42.0559 12.9173 41.779 12.6695 41.779 12.4217V10.786C41.779 10.5382 41.779 10.0921 42.0559 9.69562L46.4357 3.5248H42.6348C42.4083 3.5248 42.2069 3.35133 42.2069 3.12828ZM15.601 13.1156H13.3859C13.1846 13.0908 13.0084 12.9421 12.9832 12.7439V1.54221C12.9832 1.31917 13.1846 1.14569 13.4111 1.14569H15.4751C15.7017 1.14569 15.8527 1.31917 15.8779 1.51743V2.97959H15.9282C16.4568 1.56699 17.4888 0.897866 18.8481 0.897866C20.2325 0.897866 21.1135 1.56699 21.7176 2.97959C22.2462 1.56699 23.4796 0.897866 24.7885 0.897866C25.7198 0.897866 26.7267 1.2696 27.3559 2.13699C28.0607 3.07872 27.9097 4.44175 27.9097 5.65609V12.7439C27.9097 12.9669 27.7083 13.1404 27.4818 13.1404H25.2919C25.0654 13.1156 24.8892 12.9421 24.8892 12.7439V6.79608C24.8892 6.32521 24.9395 5.13566 24.8388 4.68958C24.6626 3.9461 24.1844 3.72306 23.5299 3.72306C23.0013 3.72306 22.4224 4.07002 22.1958 4.64001C21.9693 5.21001 21.9945 6.15174 21.9945 6.79608V12.7439C21.9945 12.9669 21.7931 13.1404 21.5666 13.1404H19.3515C19.125 13.1156 18.9488 12.9421 18.9488 12.7439V6.79608C18.9488 5.55696 19.1501 3.69828 17.5895 3.69828C16.0037 3.69828 16.0541 5.48261 16.0541 6.79608V12.7439C16.0289 12.9421 15.8527 13.1156 15.601 13.1156ZM56.63 0.897866C59.9274 0.897866 61.7146 3.6735 61.7146 7.21738C61.7146 10.6374 59.7512 13.3634 56.63 13.3634C53.4081 13.3634 51.6461 10.5878 51.6461 7.11825C51.6209 3.62393 53.4081 0.897866 56.63 0.897866ZM56.63 3.20263C54.9939 3.20263 54.8932 5.40827 54.8932 6.7713C54.8932 8.13433 54.868 11.0587 56.6048 11.0587C58.3165 11.0587 58.4172 8.70433 58.4172 7.26695C58.4172 6.32521 58.3668 5.18522 58.0899 4.29306C57.8382 3.50002 57.3348 3.20263 56.63 3.20263ZM65.9685 13.1156H63.7535C63.5269 13.0908 63.3507 12.9173 63.3507 12.7191V1.49264C63.3759 1.29438 63.5521 1.12091 63.7786 1.12091H65.8427C66.044 1.12091 66.1951 1.2696 66.2454 1.44308V3.15307H66.2957C66.925 1.61656 67.7808 0.897866 69.3163 0.897866C70.298 0.897866 71.2796 1.24482 71.9089 2.21133C72.4879 3.1035 72.4879 4.61523 72.4879 5.70565V12.7686C72.4627 12.9669 72.2865 13.1156 72.0599 13.1156H69.8449C69.6435 13.0908 69.4673 12.9421 69.4421 12.7686V6.67217C69.4421 5.43305 69.5932 3.64871 68.0577 3.64871C67.5291 3.64871 67.0257 3.99567 66.774 4.54088C66.4719 5.23479 66.4216 5.90391 66.4216 6.67217V12.7191C66.3964 12.9421 66.1951 13.1156 65.9685 13.1156ZM36.3924 7.76259C36.3924 8.6052 36.4176 9.32389 35.9896 10.0921C35.6372 10.7117 35.0835 11.0834 34.4542 11.0834C33.5984 11.0834 33.095 10.4391 33.095 9.49736C33.095 7.63868 34.7814 7.29173 36.3924 7.29173V7.76259ZM38.6326 13.0908C38.4816 13.2147 38.2802 13.2395 38.104 13.1404C37.3741 12.5456 37.223 12.2482 36.8203 11.6782C35.6121 12.8926 34.7311 13.2643 33.1705 13.2643C31.3078 13.2643 29.8479 12.1243 29.8479 9.8691C29.8479 8.08477 30.8296 6.89521 32.214 6.30043C33.4222 5.78 35.1087 5.68087 36.3924 5.53218V5.25957C36.3924 4.73914 36.4427 4.11958 36.1155 3.6735C35.8386 3.27698 35.3352 3.1035 34.8821 3.1035C34.0263 3.1035 33.2712 3.5248 33.095 4.41697C33.0446 4.61523 32.9188 4.81349 32.7174 4.81349L30.5778 4.59045C30.4016 4.54088 30.2003 4.41697 30.2506 4.14436C30.754 1.56699 33.095 0.798737 35.2093 0.798737C36.2917 0.798737 37.7013 1.07134 38.5571 1.88916C39.6395 2.88046 39.5388 4.21871 39.5388 5.65609V9.05128C39.5388 10.0674 39.9667 10.5134 40.3694 11.0834C40.5205 11.2817 40.5456 11.5295 40.3694 11.6534C39.8912 12.0252 39.0857 12.7191 38.6326 13.0908ZM7.31968 7.76259C7.31968 8.6052 7.34485 9.32389 6.91694 10.0921C6.56454 10.7117 6.01078 11.0834 5.3815 11.0834C4.52568 11.0834 4.02225 10.4391 4.02225 9.49736C4.02225 7.63868 5.70872 7.29173 7.31968 7.29173V7.76259ZM9.53474 13.0908C9.38371 13.2147 9.18234 13.2395 9.00615 13.1404C8.27618 12.5456 8.12515 12.2482 7.72242 11.6782C6.5142 12.8926 5.63321 13.2643 4.0726 13.2643C2.20993 13.2643 0.75 12.1243 0.75 9.8691C0.75 8.08477 1.73168 6.89521 3.11609 6.30043C4.32431 5.78 6.01078 5.68087 7.29451 5.53218V5.25957C7.29451 4.73914 7.34485 4.11958 7.01762 3.6735C6.74074 3.27698 6.23732 3.1035 5.78424 3.1035C4.92842 3.1035 4.17328 3.5248 3.99708 4.41697C3.94674 4.61523 3.82088 4.81349 3.61951 4.81349L1.47996 4.59045C1.30377 4.54088 1.1024 4.41697 1.15274 4.14436C1.65616 1.56699 3.99708 0.798737 6.11146 0.798737C7.19382 0.798737 8.60341 1.07134 9.45923 1.88916C10.5416 2.88046 10.4409 4.21871 10.4409 5.65609V9.05128C10.4409 10.0674 10.8688 10.5134 11.2716 11.0834C11.4226 11.2817 11.4477 11.5295 11.2716 11.6534C10.7933 12.0252 9.98782 12.7191 9.53474 13.0908Z" fill="black"/>
</g>
<defs>
<clipPath id="clip0">
<rect width="71.7378" height="21.2633" fill="white" transform="translate(0.75 0.798737)"/>
</clipPath>
</defs>
</svg>
