<svg width="180" height="64" viewBox="0 0 180 64" fill="none" xmlns="http://www.w3.org/2000/svg">
<path d="M117.667 57.7241C117.76 57.7815 117.87 57.8478 117.959 57.9272C118.082 58.0376 118.175 58.1701 118.157 58.3467C118.131 58.6558 117.787 58.7927 117.513 58.7883C116.71 58.7662 115.819 58.4527 115.043 58.2717C114.107 58.0509 113.3 57.8433 112.356 57.6711C108.452 56.9558 104.464 56.6644 100.498 56.5937C94.9214 56.6467 89.3716 57.5033 83.9586 58.8324C81.2411 59.4992 78.5544 60.294 75.8987 61.1683C73.3664 61.9985 70.94 63.0229 68.324 63.6234C66.7887 63.9767 65.0947 64.2725 63.608 63.5837C62.2889 62.9699 61.2743 61.4907 61.6757 60.0026C61.8743 59.274 62.3904 58.7309 63.0345 58.3114C63.5859 57.9537 64.1903 57.6932 64.8035 57.4592C67.0843 56.5761 69.5063 56.0418 71.9018 55.587C76.8824 54.642 81.9425 54.1298 86.9938 53.7677C92.9494 53.3394 98.7903 53.5734 104.693 54.4433C109.1 55.1012 113.538 56.0285 117.667 57.7241Z" fill="#EF8313"/>
<path d="M168.22 38.8739C168.357 39.1653 168.418 39.4832 168.339 39.8012C168.171 40.4812 167.465 40.8432 166.799 40.7947C166.393 40.7638 166.01 40.6136 165.648 40.4282C164.624 39.9027 163.486 38.7811 162.97 37.7567C162.449 36.7279 163.314 36.5159 164.174 36.6219C165.304 36.7632 166.499 37.1871 167.399 37.8936C167.717 38.1409 168.039 38.4853 168.22 38.8739Z" fill="#EF8313"/>
<path d="M161.073 14.0977C160.751 13.6959 160.403 13.3161 160.032 12.9629C154.571 7.75685 144.817 8.63998 139.007 12.8348C133.955 16.4777 132.125 22.6419 133.47 28.6516C134.71 34.2109 139.404 39.5935 145.222 40.6224C161.85 43.5764 169.989 25.1633 161.073 14.0977Z" fill="#F2C819"/>
<path d="M140.899 17.9304C141.314 17.4006 141.825 16.9237 142.452 16.672C143.18 16.3761 144.04 16.4203 144.737 16.7824C145.368 17.1091 146.687 18.4338 145.999 19.2154C145.774 19.4715 145.372 19.445 145.046 19.3434C144.547 19.1933 144.062 18.9284 143.546 18.9858C142.84 19.0653 142.355 19.7099 141.931 20.284C141.689 20.6151 141.349 20.9816 140.943 20.9154C140.7 20.8757 140.502 20.6814 140.405 20.4562C140.308 20.231 140.29 19.9793 140.299 19.732C140.317 19.0388 140.471 18.478 140.899 17.9304Z" fill="#1D3D78"/>
<path d="M148.31 22.5449C148.509 22.4301 148.61 22.1916 148.69 21.9841C148.8 21.6971 148.915 21.0347 149.338 21.0656C149.78 21.0965 149.837 21.5911 149.815 21.9399C149.762 22.7082 149.352 23.3397 148.619 23.6046C148.063 23.8077 147.402 23.7901 146.881 23.4854C146.541 23.2867 146.294 22.9688 146.189 22.5934C146.087 22.2358 146.144 21.7236 146.612 21.6882C147.084 21.6529 147.234 22.1739 147.534 22.4168C147.728 22.5714 148.011 22.6685 148.253 22.5714C148.271 22.5669 148.293 22.5581 148.31 22.5449Z" fill="#1D3D78"/>
<path d="M154.703 16.5572C153.675 14.9897 151.244 14.3715 149.731 16.385C149.643 16.5042 149.563 16.6279 149.493 16.7603C149.184 17.3564 148.857 18.6281 149.841 18.7694C149.982 18.7915 150.128 18.7562 150.265 18.712C150.781 18.5354 151.138 18.085 151.628 17.8598C152.184 17.6037 152.837 17.692 153.348 18.0011C153.754 18.244 154.31 18.7827 154.817 18.5001C155.444 18.1424 154.989 16.9988 154.703 16.5572Z" fill="#1D3D78"/>
<path d="M10.0164 27.0796C9.92821 27.1547 9.84439 27.243 9.76498 27.3358C8.90472 28.3558 9.33706 30.1706 10.5679 30.6872C13.1663 31.7867 18.2484 28.5854 18.6322 33.16C18.6808 33.7605 18.544 34.3919 18.1646 34.86C16.6735 36.6925 13.1972 35.5091 11.212 36.0478C9.53999 36.4982 9.53999 38.0966 9.74733 39.5229C10.0032 41.2715 10.4135 43.0686 9.92821 44.8172C9.28853 47.1266 6.78275 47.4136 4.68726 47.1619C2.29177 46.8749 1.06976 45.3648 0.805069 43.0068C0.403615 39.4611 0.350676 34.9174 0.385969 31.2877C0.41685 28.2012 0.0374545 24.4038 2.01825 21.7941C2.97998 20.5224 4.4358 20.0102 5.98867 19.9263C8.96649 19.7718 11.9487 19.6702 14.9177 19.4229C16.9603 19.2551 19.8013 18.8533 21.4336 20.4253C22.3909 21.3482 22.5056 22.8804 22.113 24.1521C21.7998 25.1721 21.1248 25.9537 20.0925 26.2848C19.1352 26.5939 18.094 26.51 17.1058 26.4173C15.1736 26.2363 11.6267 25.6931 10.0164 27.0796Z" fill="#1C3D79"/>
<path d="M82.9969 27.0796C82.9087 27.1547 82.8249 27.243 82.7454 27.3358C81.8852 28.3558 82.3175 30.1706 83.5483 30.6872C86.1468 31.7867 91.2289 28.5854 91.6127 33.16C91.6612 33.7605 91.5245 34.3919 91.1451 34.86C89.654 36.6925 86.1776 35.5091 84.1924 36.0478C82.5205 36.4982 82.5205 38.0966 82.7278 39.5229C82.9837 41.2715 83.3939 43.0686 82.9087 44.8172C82.269 47.1266 79.7632 47.4136 77.6677 47.1619C75.2722 46.8749 74.0502 45.3648 73.7855 43.0068C73.3841 39.4611 73.3311 34.9174 73.3664 31.2877C73.3973 28.2012 73.0179 24.4038 74.9987 21.7941C75.9604 20.5224 77.4163 20.0102 78.9691 19.9263C81.947 19.7718 84.9292 19.6702 87.8982 19.4229C89.9407 19.2551 92.7818 18.8533 94.4141 20.4253C95.3714 21.3482 95.4861 22.8804 95.0934 24.1521C94.7802 25.1721 94.1053 25.9537 93.0729 26.2848C92.1156 26.5939 91.0745 26.51 90.0863 26.4173C88.1496 26.2363 84.6027 25.6931 82.9969 27.0796Z" fill="#1C3D79"/>
<path d="M63.9743 21.3747C64.3978 20.3856 65.2713 19.7188 66.983 19.6835C70.7902 19.6128 70.7637 24.9734 70.8961 27.6051C71.077 31.1641 72.374 46.6144 66.1713 45.9653C64.4772 45.7887 63.5155 44.2962 62.8847 42.8435C62.0994 41.0286 60.4318 33.6722 57.4496 34.2816C55.5659 34.6657 56.0291 38.6751 56.0114 40.0351C55.9805 42.2474 55.9673 45.8196 53.1968 46.3716C51.3043 46.7469 49.9146 45.1528 49.3632 43.5765C48.6441 41.51 48.6617 39.3021 48.547 37.1208C48.3529 33.3984 48.1941 28.7267 48.9573 25.0573C49.9411 20.337 55.2791 17.6479 58.4025 22.2799C59.1878 23.4456 59.7701 24.6776 60.4936 25.8875C61.0142 26.7573 61.8347 28.2763 62.5582 29.0005C63.0567 29.4994 63.7229 29.3316 63.8199 28.3867C64.0361 26.3952 63.1582 23.2866 63.9743 21.3747Z" fill="#1C3D79"/>
<path d="M119.335 28.9341C119.348 30.2544 119.128 31.5747 118.678 32.7934C118.197 34.096 117.39 34.9747 116.596 36.0654C116.057 36.8116 116.525 37.761 116.922 38.4896C117.707 39.9379 119.062 41.6865 118.903 43.4351C118.656 46.1286 115.131 47.3561 113.238 45.5943C111.483 43.9649 110.834 41.3774 109.837 39.2755C109.577 38.728 108.844 36.4981 107.98 36.7145C107.786 36.763 107.481 36.9397 107.415 37.1295C107.349 37.3194 107.269 37.5269 107.269 37.7256C107.261 40.8652 108.231 45.1836 104.574 46.2522C102.884 46.7424 100.851 46.5392 99.8051 45.1218C99.5845 44.8216 99.4168 44.486 99.2801 44.1416C98.5742 42.3444 98.9713 40.0218 98.9845 38.1275C98.9977 35.6635 99.2095 33.1952 99.2624 30.7313C99.2845 29.5347 99.5448 27.3048 98.4331 26.457C98.1595 26.2494 97.811 26.1611 97.5331 25.9536C96.8449 25.4458 96.8096 24.4434 96.8405 23.5912C96.8669 22.9289 96.8934 22.2577 97.1052 21.6307C97.5199 20.4075 98.636 19.9836 99.8712 19.8423C101.931 19.6039 104.128 19.467 106.215 19.4847C108.721 19.5023 111.765 19.5023 114.107 20.4385C117.575 21.8338 119.304 25.3751 119.335 28.9341ZM106.969 24.9689C106.409 25.459 106.55 26.6115 106.546 27.3754C106.537 28.3998 106.555 29.4243 106.59 30.4487C106.603 30.7843 106.559 31.3186 106.621 31.7955C106.709 32.4534 107.358 32.8949 107.997 32.7139C110.04 32.1399 111.588 30.7092 111.588 28.4572C111.588 26.3024 109.894 24.8938 107.83 24.7393C107.437 24.7084 107.159 24.8011 106.969 24.9689Z" fill="#1C3D79"/>
<path d="M148.911 44.6274C149.934 46.1729 152.158 46.641 153.732 45.5371C155.382 44.3846 155.453 42.2607 155.585 40.5032C155.757 38.1629 155.89 35.805 156.243 33.478C156.635 30.8992 157.456 28.0688 154.681 26.435C152.793 25.3223 150.04 25.3709 148.403 26.8854C146.581 28.5678 146.877 31.4953 146.939 33.6811C146.996 35.8138 147.018 41.7661 148.911 44.6274Z" fill="#1C3D79"/>
<path d="M174.904 28.3072C174.895 28.316 174.886 28.3248 174.873 28.3337C172.852 30.069 173.152 33.1246 173.038 35.5974C172.91 38.3351 173.523 43.3247 171.648 45.5237C169.795 47.6962 166.372 46.3804 165.6 43.8767C165.022 42.0001 165.145 39.5803 165.066 37.6286C164.986 35.7652 165.008 33.9106 165.031 32.0516C165.048 30.7225 165.22 29.0888 164.311 27.9937C163.217 26.6822 161.17 27.2033 159.701 26.9207C156.657 26.329 156.644 22.4918 159.234 21.2289C161.047 20.3414 163.292 20.6372 165.242 20.6107C167.139 20.5842 169.032 20.7741 170.929 20.7874C172.561 20.8006 174.864 20.6726 176.434 21.1892C177.696 21.6043 179.161 22.5845 179.342 23.9799C179.752 27.0708 176.337 27.0929 174.904 28.3072Z" fill="#1C3D79"/>
<path d="M145.412 43.5941C145.434 43.8767 145.35 44.1681 145.143 44.4022C144.587 45.038 143.917 45.5105 143.131 45.824C141.605 46.4289 139.752 46.451 138.257 45.7445C137.595 45.431 136.986 45.0071 136.439 44.517C135.989 44.1152 135.676 43.6162 134.979 43.7487C134.643 43.8105 134.348 44.0092 134.136 44.2741C132.72 46.0448 129.83 46.5438 127.678 46.1993C119.582 44.91 120.685 33.1556 121.007 27.3181C121.109 25.4724 121.448 23.4809 122.366 21.8515C124.289 18.4339 129.927 19.1094 130.894 22.9113C131.092 23.684 131.145 24.4921 131.101 25.2869C130.88 29.1727 130.66 33.0628 130.435 36.9486C130.369 38.1011 130.439 39.5141 131.498 40.0219C132.839 40.6665 133.968 39.4037 134.432 38.2909C136.32 33.7473 133.655 28.6295 135.53 24.1344C135.821 23.4412 136.324 22.8362 137.021 22.5316C138.036 22.09 139.271 22.1121 140.312 22.4477C145.275 24.0373 142.302 33.1291 142.02 36.6395C141.883 38.3704 141.658 40.3884 142.809 41.8411C143.105 42.212 143.374 42.4902 143.833 42.5741C144.239 42.6492 144.578 42.4681 144.944 42.7507C145.227 42.9583 145.39 43.2718 145.412 43.5941Z" fill="#1C3D79"/>
<path d="M47.7573 43.5941C47.7794 43.8767 47.6956 44.1681 47.4882 44.4022C46.9324 45.038 46.2618 45.5105 45.4766 45.824C43.9501 46.4289 42.0973 46.451 40.6018 45.7445C39.94 45.431 39.3312 45.0071 38.7842 44.517C38.3342 44.1152 38.021 43.6162 37.324 43.7487C36.9887 43.8105 36.6931 44.0092 36.4814 44.2741C35.0652 46.0448 32.1757 46.5438 30.0228 46.1993C21.9276 44.91 23.0305 33.1556 23.3525 27.3181C23.454 25.4724 23.7937 23.4809 24.7113 21.8515C26.6347 18.4339 32.2727 19.1094 33.2388 22.9113C33.4374 23.684 33.4903 24.4921 33.4462 25.2869C33.2256 29.1727 33.005 33.0628 32.78 36.9486C32.7139 38.1011 32.7845 39.5141 33.8432 40.0219C35.1843 40.6665 36.3137 39.4037 36.7769 38.2909C38.6651 33.7473 36.0005 28.6295 37.8754 24.1344C38.1666 23.4412 38.6695 22.8362 39.3665 22.5316C40.3812 22.09 41.6164 22.1121 42.6576 22.4477C47.6206 24.0373 44.6472 33.1291 44.3648 36.6395C44.2281 38.3704 44.0031 40.3884 45.1545 41.8411C45.4501 42.212 45.7192 42.4902 46.178 42.5741C46.5839 42.6492 46.9235 42.4681 47.2897 42.7507C47.5721 42.9583 47.7309 43.2718 47.7573 43.5941Z" fill="#1C3D79"/>
<path d="M127.413 14.1993C127.356 14.1728 127.294 14.1507 127.232 14.1243C126.346 13.7754 124.766 13.7666 124.312 14.8484C123.584 16.5749 126.098 17.5949 127.435 17.7451C128.282 17.8422 129.764 18.1292 130.444 17.4316C131.617 16.2261 128.19 14.5261 127.413 14.1993Z" fill="#EF8313"/>
<path d="M129.928 9.21407C129.597 8.55172 129.429 7.41691 130.175 6.94443C131.317 6.22027 132.87 7.6686 133.576 8.44575C134.141 9.07277 136.545 12.5699 134.251 12.2344C132.782 12.0224 131.123 10.8699 130.21 9.66005C130.1 9.51875 130.007 9.36862 129.928 9.21407Z" fill="#EF8313"/>
<path d="M137.118 3.55769C137.158 3.20444 137.286 2.87327 137.546 2.62157C138.098 2.08287 138.967 2.15352 139.558 2.58625C139.92 2.84677 140.193 3.21327 140.422 3.59743C141.075 4.67926 141.49 6.39252 141.38 7.64656C141.27 8.90943 140.339 8.60917 139.593 8.00864C138.618 7.21824 137.745 6.132 137.312 4.94861C137.167 4.53354 137.065 4.02574 137.118 3.55769Z" fill="#EF8313"/>
<path d="M161.611 44.3846C161.585 44.6583 161.492 44.9144 161.298 45.1131C160.879 45.537 160.208 45.5017 159.745 45.175C159.463 44.9807 159.247 44.7025 159.061 44.4111C158.536 43.5853 158.188 42.2739 158.254 41.3024C158.316 40.3266 159.044 40.543 159.626 40.9934C160.394 41.585 161.082 42.4108 161.439 43.316C161.558 43.6339 161.642 44.0225 161.611 44.3846Z" fill="#EF8313"/>
<path d="M146.175 1.38506C146.378 0.740381 147.018 0.13544 147.742 0.0206332C149.144 -0.195733 149.828 1.33649 149.841 2.41832C149.855 3.5134 149.414 4.71445 148.924 5.69913C148.368 6.80746 147.375 7.47422 146.705 6.13187C146.233 5.19134 145.898 3.84015 145.946 2.79807C145.964 2.36092 146.03 1.8487 146.175 1.38506Z" fill="#EF8313"/>
<path d="M157.465 1.08922C155.285 1.61468 154.888 4.96173 155.232 6.57785C155.457 7.62877 156.203 7.80098 157.028 7.16513C157.8 6.5646 158.417 5.71239 158.894 4.89108C159.401 4.01237 159.794 2.91729 159.432 1.9591C159.172 1.2526 158.232 0.903767 157.465 1.08922Z" fill="#EF8313"/>
<path d="M123.954 28.3779C125.498 29.5613 128.233 28.0026 129.133 26.8854C129.72 26.1613 129.425 25.5607 128.547 25.3532C127.722 25.1589 126.809 25.2075 125.997 25.3355C125.128 25.4724 123.91 25.808 123.46 26.5719C123.134 27.1371 123.412 27.9628 123.954 28.3779Z" fill="#EF8313"/>
<path d="M162.362 10.6095C162.101 11.5103 162.781 11.8944 163.588 11.7708C165.145 11.5368 167.836 10.296 168.017 8.46348C168.092 7.71724 167.616 7.07255 166.888 6.90476C165.9 6.67073 165.066 7.12113 164.347 7.71724C163.513 8.41049 162.666 9.55855 162.362 10.6095Z" fill="#EF8313"/>
<path d="M132.103 34.2596C132.279 33.4912 131.688 33.2042 131.017 33.3455C129.725 33.6193 127.532 34.7894 127.47 36.3349C127.444 36.9619 127.876 37.4786 128.494 37.5845C129.332 37.7302 130.113 37.0811 130.686 36.5424C131.348 35.9287 131.9 35.1559 132.103 34.2596Z" fill="#EF8313"/>
<path d="M169.667 14.9632C169.05 14.9278 168.476 15.184 167.969 15.4666C167.457 15.7536 166.972 16.0715 166.517 16.4247C166.191 16.6809 165.856 17.0385 166.006 17.4138C166.129 17.7274 166.539 17.8863 166.91 17.9658C168.026 18.2087 169.217 18.1115 170.227 17.6964C170.466 17.5993 170.7 17.4801 170.858 17.299C171.577 16.4689 170.96 15.0338 169.667 14.9632Z" fill="#EF8313"/>
</svg>
