<svg width="51" height="11" viewBox="0 0 51 11" fill="none" xmlns="http://www.w3.org/2000/svg">
<path d="M1.40989 6.37777C1.32863 6.32347 1.23189 6.26082 1.1545 6.18563C1.04615 6.0812 0.964894 5.95589 0.98037 5.78881C1.00359 5.49642 1.30541 5.36693 1.54532 5.37111C2.24958 5.39199 3.03123 5.68856 3.71227 5.85982C4.53262 6.06867 5.24074 6.26499 6.06883 6.42789C9.49338 7.10457 12.9914 7.38026 16.4702 7.44709C21.3613 7.39696 26.2292 6.58663 30.9771 5.32934C33.3607 4.69861 35.7173 3.94675 38.0468 3.1197C40.2679 2.33442 42.3961 1.36535 44.6908 0.797273C46.0374 0.463111 47.5233 0.18325 48.8273 0.834865C49.9843 1.41547 50.8743 2.81477 50.5222 4.22243C50.3481 4.91164 49.8953 5.42541 49.3304 5.82223C48.8467 6.16057 48.3165 6.40702 47.7787 6.6284C45.7781 7.4638 43.6537 7.96922 41.5526 8.39945C37.1839 9.29334 32.7455 9.77787 28.3149 10.1204C23.091 10.5256 17.9677 10.3042 12.7902 9.4813C8.92455 8.85892 5.03178 7.98175 1.40989 6.37777Z" fill="#EF8215"/>
</svg>
