<svg width="192" height="17" viewBox="0 0 192 17" fill="none" xmlns="http://www.w3.org/2000/svg">
<path opacity="0.6" d="M0.00500003 3.44311H4.385C5.295 3.44311 6.06 3.73811 6.68 4.32811C7.31 4.91811 7.625 5.70812 7.625 6.69812C7.625 7.70811 7.295 8.53811 6.635 9.18812C5.985 9.83812 5.07 10.1631 3.89 10.1631H1.655V13.9431H0.00500003V3.44311ZM1.655 8.70812H3.95C4.56 8.70812 5.04 8.52812 5.39 8.16811C5.74 7.80811 5.915 7.35811 5.915 6.81811C5.915 6.22811 5.75 5.76311 5.42 5.42311C5.09 5.07311 4.655 4.89811 4.115 4.89811H1.655V8.70812ZM15.7948 12.9831C15.1148 13.6931 14.1998 14.0481 13.0498 14.0481C11.8998 14.0481 10.9798 13.6931 10.2898 12.9831C9.60984 12.2631 9.26984 11.2331 9.26984 9.89312C9.26984 8.55312 9.61484 7.52811 10.3048 6.81811C10.9948 6.09811 11.9098 5.73811 13.0498 5.73811C14.1998 5.73811 15.1148 6.09811 15.7948 6.81811C16.4848 7.52811 16.8298 8.55312 16.8298 9.89312C16.8298 11.2331 16.4848 12.2631 15.7948 12.9831ZM13.0498 7.05811C12.3898 7.05811 11.8648 7.28811 11.4748 7.74811C11.0848 8.20812 10.8898 8.92312 10.8898 9.89312C10.8898 10.8631 11.0848 11.5781 11.4748 12.0381C11.8648 12.4981 12.3898 12.7281 13.0498 12.7281C13.7198 12.7281 14.2448 12.4981 14.6248 12.0381C15.0148 11.5781 15.2098 10.8631 15.2098 9.89312C15.2098 8.92312 15.0148 8.20812 14.6248 7.74811C14.2448 7.28811 13.7198 7.05811 13.0498 7.05811ZM22.3067 13.9431H20.3417L18.3167 5.84311H19.9817L21.4217 12.1581L23.1317 5.84311H24.9467L26.6867 12.1881L28.1267 5.84311H29.7467L27.6617 13.9431H25.7117L24.0017 7.61311L22.3067 13.9431ZM38.409 10.2381H32.649C32.679 10.9481 32.864 11.5431 33.204 12.0231C33.544 12.4931 34.094 12.7281 34.854 12.7281C35.454 12.7281 35.914 12.5681 36.234 12.2481C36.554 11.9281 36.739 11.5781 36.789 11.1981L38.349 11.2281C38.329 11.4381 38.289 11.6531 38.229 11.8731C38.169 12.0931 38.054 12.3381 37.884 12.6081C37.714 12.8781 37.504 13.1181 37.254 13.3281C37.014 13.5281 36.679 13.6981 36.249 13.8381C35.829 13.9781 35.349 14.0481 34.809 14.0481C33.659 14.0481 32.739 13.6881 32.049 12.9681C31.359 12.2381 31.014 11.2131 31.014 9.89312C31.014 8.63311 31.364 7.62811 32.064 6.87811C32.764 6.11811 33.674 5.73811 34.794 5.73811C35.974 5.73811 36.884 6.12811 37.524 6.90812C38.174 7.68811 38.469 8.79811 38.409 10.2381ZM32.709 8.99312H36.729C36.709 8.31311 36.514 7.81811 36.144 7.50811C35.784 7.19812 35.329 7.04312 34.779 7.04312C34.199 7.04312 33.724 7.21812 33.354 7.56812C32.994 7.90811 32.779 8.38311 32.709 8.99312ZM45.119 7.46312H44.594C43.814 7.46312 43.229 7.62312 42.839 7.94312C42.459 8.26311 42.269 8.79311 42.269 9.53312V13.9431H40.679V5.84311H42.239V7.13311C42.479 6.67312 42.814 6.34312 43.244 6.14311C43.674 5.94311 44.109 5.84311 44.549 5.84311H45.119V7.46312ZM53.8982 10.2381H48.1382C48.1682 10.9481 48.3532 11.5431 48.6932 12.0231C49.0332 12.4931 49.5832 12.7281 50.3432 12.7281C50.9432 12.7281 51.4032 12.5681 51.7232 12.2481C52.0432 11.9281 52.2282 11.5781 52.2782 11.1981L53.8382 11.2281C53.8182 11.4381 53.7782 11.6531 53.7182 11.8731C53.6582 12.0931 53.5432 12.3381 53.3732 12.6081C53.2032 12.8781 52.9932 13.1181 52.7432 13.3281C52.5032 13.5281 52.1682 13.6981 51.7382 13.8381C51.3182 13.9781 50.8382 14.0481 50.2982 14.0481C49.1482 14.0481 48.2282 13.6881 47.5382 12.9681C46.8482 12.2381 46.5032 11.2131 46.5032 9.89312C46.5032 8.63311 46.8532 7.62811 47.5532 6.87811C48.2532 6.11811 49.1632 5.73811 50.2832 5.73811C51.4632 5.73811 52.3732 6.12811 53.0132 6.90812C53.6632 7.68811 53.9582 8.79811 53.8982 10.2381ZM48.1982 8.99312H52.2182C52.1982 8.31311 52.0032 7.81811 51.6332 7.50811C51.2732 7.19812 50.8182 7.04312 50.2682 7.04312C49.6882 7.04312 49.2132 7.21812 48.8432 7.56812C48.4832 7.90811 48.2682 8.38311 48.1982 8.99312ZM61.7333 13.9431V12.9531C61.5533 13.2331 61.2483 13.4881 60.8183 13.7181C60.3883 13.9381 59.9083 14.0481 59.3783 14.0481C58.2883 14.0481 57.4183 13.6931 56.7683 12.9831C56.1183 12.2631 55.7933 11.2331 55.7933 9.89312C55.7933 8.55312 56.1183 7.52811 56.7683 6.81811C57.4283 6.09811 58.2983 5.73811 59.3783 5.73811C60.4083 5.73811 61.1933 6.11811 61.7333 6.87811V2.84312H63.3233V13.9431H61.7333ZM59.5733 7.05811C58.8933 7.05811 58.3633 7.27311 57.9833 7.70312C57.6033 8.13311 57.4133 8.86311 57.4133 9.89312C57.4133 11.7831 58.1333 12.7281 59.5733 12.7281C60.2633 12.7281 60.7983 12.5181 61.1783 12.0981C61.5583 11.6681 61.7483 10.9331 61.7483 9.89312C61.7483 8.86311 61.5583 8.13311 61.1783 7.70312C60.7983 7.27311 60.2633 7.05811 59.5733 7.05811ZM71.4165 2.84312V6.87811C71.9565 6.11811 72.7615 5.73811 73.8315 5.73811C74.9115 5.73811 75.7665 6.09311 76.3965 6.80312C77.0365 7.51311 77.3565 8.54311 77.3565 9.89312C77.3565 11.2331 77.0215 12.2631 76.3515 12.9831C75.6915 13.6931 74.8115 14.0481 73.7115 14.0481C73.1915 14.0481 72.7165 13.9381 72.2865 13.7181C71.8665 13.4981 71.5765 13.2431 71.4165 12.9531V13.9431H69.8265V2.84312H71.4165ZM73.5765 7.05811C72.8865 7.05811 72.3515 7.27311 71.9715 7.70312C71.5915 8.13311 71.4015 8.86311 71.4015 9.89312C71.4015 10.9331 71.5915 11.6681 71.9715 12.0981C72.3515 12.5181 72.8865 12.7281 73.5765 12.7281C74.2665 12.7281 74.7965 12.5181 75.1665 12.0981C75.5465 11.6681 75.7365 10.9331 75.7365 9.89312C75.7365 8.86311 75.5465 8.13311 75.1665 7.70312C74.7865 7.27311 74.2565 7.05811 73.5765 7.05811ZM84.3316 5.84311H85.9966L82.6666 15.1731C82.4866 15.6931 82.2366 16.0981 81.9166 16.3881C81.5966 16.6781 81.1466 16.8231 80.5666 16.8231H79.0516V15.4731H80.2366C80.5966 15.4731 80.8466 15.3781 80.9866 15.1881C81.1266 14.9981 81.2816 14.5981 81.4516 13.9881L78.5716 5.84311H80.3116L82.3066 12.0081L84.3316 5.84311ZM100.224 6.72811H98.4693C98.2493 5.40811 97.4493 4.74811 96.0693 4.74811C95.5493 4.74811 95.0943 4.86311 94.7043 5.09311C94.3143 5.32311 94.0143 5.63311 93.8043 6.02312C93.5943 6.41312 93.4393 6.83311 93.3393 7.28311C93.2393 7.73311 93.1893 8.20812 93.1893 8.70812C93.1893 9.82812 93.4343 10.7631 93.9243 11.5131C94.4143 12.2631 95.1543 12.6381 96.1443 12.6381C96.8443 12.6381 97.3893 12.4481 97.7793 12.0681C98.1793 11.6881 98.4143 11.2131 98.4843 10.6431H100.239C100.229 10.8631 100.189 11.0981 100.119 11.3481C100.059 11.5981 99.9343 11.8981 99.7443 12.2481C99.5643 12.5881 99.3343 12.8881 99.0543 13.1481C98.7743 13.4081 98.3793 13.6331 97.8693 13.8231C97.3693 14.0131 96.7993 14.1081 96.1593 14.1081C95.4293 14.1081 94.7743 13.9881 94.1943 13.7481C93.6243 13.5081 93.1693 13.2031 92.8293 12.8331C92.4993 12.4531 92.2243 12.0131 92.0043 11.5131C91.7843 11.0131 91.6343 10.5381 91.5543 10.0881C91.4843 9.62812 91.4493 9.16312 91.4493 8.69311C91.4493 8.17312 91.4943 7.67312 91.5843 7.19311C91.6743 6.70312 91.8343 6.21811 92.0643 5.73811C92.2943 5.24811 92.5793 4.82811 92.9193 4.47811C93.2593 4.11811 93.7043 3.82811 94.2543 3.60812C94.8143 3.38811 95.4443 3.27811 96.1443 3.27811C96.7943 3.27811 97.3693 3.37811 97.8693 3.57811C98.3793 3.77811 98.7743 4.01311 99.0543 4.28311C99.3343 4.55311 99.5643 4.86311 99.7443 5.21311C99.9343 5.56311 100.054 5.85311 100.104 6.08311C100.164 6.31311 100.204 6.52811 100.224 6.72811ZM108.625 12.9831C107.945 13.6931 107.03 14.0481 105.88 14.0481C104.73 14.0481 103.81 13.6931 103.12 12.9831C102.44 12.2631 102.1 11.2331 102.1 9.89312C102.1 8.55312 102.445 7.52811 103.135 6.81811C103.825 6.09811 104.74 5.73811 105.88 5.73811C107.03 5.73811 107.945 6.09811 108.625 6.81811C109.315 7.52811 109.66 8.55312 109.66 9.89312C109.66 11.2331 109.315 12.2631 108.625 12.9831ZM105.88 7.05811C105.22 7.05811 104.695 7.28811 104.305 7.74811C103.915 8.20812 103.72 8.92312 103.72 9.89312C103.72 10.8631 103.915 11.5781 104.305 12.0381C104.695 12.4981 105.22 12.7281 105.88 12.7281C106.55 12.7281 107.075 12.4981 107.455 12.0381C107.845 11.5781 108.04 10.8631 108.04 9.89312C108.04 8.92312 107.845 8.20812 107.455 7.74811C107.075 7.28811 106.55 7.05811 105.88 7.05811ZM118.827 13.9431H117.237V8.84312C117.237 7.68311 116.687 7.10311 115.587 7.10311C114.977 7.10311 114.472 7.30811 114.072 7.71811C113.682 8.12811 113.487 8.70312 113.487 9.44312V13.9431H111.897V5.84311H113.472V6.84811C114.042 6.10811 114.877 5.73811 115.977 5.73811C116.857 5.73811 117.552 5.97811 118.062 6.45812C118.572 6.92811 118.827 7.56311 118.827 8.36312V13.9431ZM128.247 8.70812H126.612C126.472 7.60811 125.867 7.05811 124.797 7.05811C124.137 7.05811 123.612 7.28811 123.222 7.74811C122.842 8.20812 122.652 8.91811 122.652 9.87811C122.652 10.8281 122.847 11.5431 123.237 12.0231C123.637 12.4931 124.152 12.7281 124.782 12.7281C125.322 12.7281 125.752 12.5831 126.072 12.2931C126.402 11.9931 126.587 11.5881 126.627 11.0781H128.262C128.142 12.0581 127.782 12.7981 127.182 13.2981C126.592 13.7981 125.797 14.0481 124.797 14.0481C123.657 14.0481 122.742 13.6881 122.052 12.9681C121.362 12.2381 121.017 11.2031 121.017 9.86312C121.017 8.53311 121.362 7.51311 122.052 6.80312C122.752 6.09311 123.667 5.73811 124.797 5.73811C125.767 5.73811 126.557 5.99811 127.167 6.51811C127.787 7.02811 128.147 7.75811 128.247 8.70812ZM137.453 10.2381H131.693C131.723 10.9481 131.908 11.5431 132.248 12.0231C132.588 12.4931 133.138 12.7281 133.898 12.7281C134.498 12.7281 134.958 12.5681 135.278 12.2481C135.598 11.9281 135.783 11.5781 135.833 11.1981L137.393 11.2281C137.373 11.4381 137.333 11.6531 137.273 11.8731C137.213 12.0931 137.098 12.3381 136.928 12.6081C136.758 12.8781 136.548 13.1181 136.298 13.3281C136.058 13.5281 135.723 13.6981 135.293 13.8381C134.873 13.9781 134.393 14.0481 133.853 14.0481C132.703 14.0481 131.783 13.6881 131.093 12.9681C130.403 12.2381 130.058 11.2131 130.058 9.89312C130.058 8.63311 130.408 7.62811 131.108 6.87811C131.808 6.11811 132.718 5.73811 133.838 5.73811C135.018 5.73811 135.928 6.12811 136.568 6.90812C137.218 7.68811 137.513 8.79811 137.453 10.2381ZM131.753 8.99312H135.773C135.753 8.31311 135.558 7.81811 135.188 7.50811C134.828 7.19812 134.373 7.04312 133.823 7.04312C133.243 7.04312 132.768 7.21812 132.398 7.56812C132.038 7.90811 131.823 8.38311 131.753 8.99312ZM139.723 5.84311H141.313V6.87811C141.853 6.11811 142.658 5.73811 143.728 5.73811C144.808 5.73811 145.663 6.09311 146.293 6.80312C146.933 7.51311 147.253 8.54311 147.253 9.89312C147.253 11.2331 146.918 12.2631 146.248 12.9831C145.588 13.6931 144.708 14.0481 143.608 14.0481C143.088 14.0481 142.613 13.9381 142.183 13.7181C141.763 13.4981 141.473 13.2431 141.313 12.9531V16.8231H139.723V5.84311ZM143.473 7.05811C142.783 7.05811 142.248 7.27311 141.868 7.70312C141.488 8.13311 141.298 8.86311 141.298 9.89312C141.298 10.9331 141.488 11.6681 141.868 12.0981C142.248 12.5181 142.783 12.7281 143.473 12.7281C144.163 12.7281 144.693 12.5181 145.063 12.0981C145.443 11.6681 145.633 10.9331 145.633 9.89312C145.633 8.86311 145.443 8.13311 145.063 7.70312C144.683 7.27311 144.153 7.05811 143.473 7.05811ZM153.31 12.5781V13.8981L152.83 13.9581C152.64 13.9881 152.275 14.0031 151.735 14.0031C151.055 14.0031 150.575 13.8431 150.295 13.5231C150.015 13.1931 149.875 12.7131 149.875 12.0831V7.16311H148.585V5.84311H149.875V3.44311H151.465V5.84311H153.445V7.16311H151.465V11.6331C151.465 12.0531 151.52 12.3231 151.63 12.4431C151.74 12.5531 151.99 12.6081 152.38 12.6081C152.63 12.6081 152.82 12.6031 152.95 12.5931C153.1 12.5931 153.22 12.5881 153.31 12.5781ZM160.469 0.0831149L162.494 2.63312H160.874L159.779 1.20811L158.684 2.63312H157.064L159.089 0.0831149H160.469ZM162.329 7.89811V3.44311H163.979V13.9431H162.329V9.36812H157.259V13.9431H155.609V3.44311H157.259V7.89811H162.329ZM173.36 13.9431H171.755C171.745 13.8931 171.74 13.8081 171.74 13.6881C171.73 13.5781 171.725 13.3781 171.725 13.0881C171.085 13.7281 170.205 14.0481 169.085 14.0481C168.275 14.0481 167.605 13.8281 167.075 13.3881C166.555 12.9481 166.295 12.3381 166.295 11.5581C166.295 11.1481 166.37 10.7931 166.52 10.4931C166.68 10.1831 166.885 9.94312 167.135 9.77311C167.385 9.60311 167.62 9.47812 167.84 9.39812C168.07 9.31812 168.305 9.25811 168.545 9.21811C169.685 9.05811 170.31 8.96811 170.42 8.94812C170.59 8.92812 171.005 8.87312 171.665 8.78312V8.46812C171.665 8.00812 171.545 7.65811 171.305 7.41811C171.075 7.16811 170.63 7.04312 169.97 7.04312C169.61 7.04312 169.31 7.08312 169.07 7.16311C168.83 7.24311 168.65 7.35811 168.53 7.50811C168.42 7.65811 168.34 7.79811 168.29 7.92811C168.25 8.04811 168.225 8.19311 168.215 8.36312H166.61C166.61 8.12311 166.635 7.89311 166.685 7.67312C166.735 7.45311 166.83 7.22311 166.97 6.98311C167.12 6.74311 167.31 6.53311 167.54 6.35311C167.78 6.17311 168.105 6.02811 168.515 5.91811C168.925 5.79811 169.4 5.73811 169.94 5.73811C172.15 5.73811 173.255 6.63811 173.255 8.43812V12.6681C173.255 13.3281 173.29 13.7531 173.36 13.9431ZM171.665 10.8981V10.0281L170.765 10.1481L169.295 10.3731C168.385 10.5231 167.93 10.9181 167.93 11.5581C167.93 11.8781 168.045 12.1631 168.275 12.4131C168.515 12.6631 168.88 12.7881 169.37 12.7881C170.13 12.7881 170.725 12.5881 171.155 12.1881C171.495 11.8481 171.665 11.4181 171.665 10.8981ZM175.798 5.84311H177.388V10.9581C177.388 12.1381 177.913 12.7281 178.963 12.7281C179.613 12.7281 180.113 12.5231 180.463 12.1131C180.823 11.7031 181.003 11.1481 181.003 10.4481V5.84311H182.593V13.9431H181.033V12.9981C180.443 13.6981 179.608 14.0481 178.528 14.0481C177.678 14.0481 177.008 13.7981 176.518 13.2981C176.038 12.7981 175.798 12.1531 175.798 11.3631V5.84311ZM191.401 8.12312H189.826C189.756 7.38312 189.201 7.01312 188.161 7.01312C187.741 7.01312 187.356 7.09312 187.006 7.25312C186.666 7.40311 186.496 7.66311 186.496 8.03311C186.496 8.47311 186.776 8.76311 187.336 8.90311C187.526 8.95311 187.796 9.00311 188.146 9.05312C188.506 9.10312 188.821 9.14812 189.091 9.18812C189.361 9.22811 189.656 9.30311 189.976 9.41311C190.306 9.51311 190.576 9.64311 190.786 9.80311C190.996 9.95312 191.171 10.1731 191.311 10.4631C191.461 10.7531 191.536 11.0931 191.536 11.4831C191.536 11.7931 191.481 12.0881 191.371 12.3681C191.271 12.6381 191.096 12.9081 190.846 13.1781C190.606 13.4381 190.241 13.6481 189.751 13.8081C189.271 13.9681 188.691 14.0481 188.011 14.0481C187.071 14.0481 186.296 13.8231 185.686 13.3731C185.086 12.9231 184.776 12.2931 184.756 11.4831H186.406C186.406 11.8431 186.541 12.1481 186.811 12.3981C187.091 12.6481 187.521 12.7731 188.101 12.7731C188.731 12.7731 189.191 12.6581 189.481 12.4281C189.781 12.1981 189.931 11.9281 189.931 11.6181C189.931 11.3581 189.856 11.1631 189.706 11.0331C189.566 10.8931 189.326 10.7831 188.986 10.7031C188.796 10.6531 188.526 10.6081 188.176 10.5681C187.826 10.5181 187.516 10.4731 187.246 10.4331C186.986 10.3931 186.701 10.3231 186.391 10.2231C186.081 10.1131 185.826 9.98312 185.626 9.83311C185.426 9.67311 185.256 9.44811 185.116 9.15812C184.976 8.86812 184.906 8.52311 184.906 8.12312C184.906 7.42311 185.196 6.85311 185.776 6.41311C186.366 5.96311 187.181 5.73811 188.221 5.73811C188.731 5.73811 189.181 5.79811 189.571 5.91811C189.961 6.03812 190.266 6.18312 190.486 6.35311C190.706 6.52311 190.886 6.72311 191.026 6.95311C191.176 7.18311 191.271 7.38811 191.311 7.56812C191.361 7.74812 191.391 7.93312 191.401 8.12312Z" fill="#F2F2F2"/>
</svg>
